<svg id="Layer_2" data-name="Layer 2" xmlns="http://www.w3.org/2000/svg" viewBox="0 0 674.95 160.98"><defs><style>.greenlogo-1{fill:#64c2c0;}.greenlogo-2,.greenlogo-6{fill:#00aba8;}.greenlogo-3{fill:#c3a770;}.greenlogo-4{fill:#ab9058;}.greenlogo-5{fill:#ffd389;opacity:0.45;}.greenlogo-6{font-size:61.13px;font-family:Montserrat-SemiBold, Montserrat;font-weight:700;}.greenlogo-7{fill:#653b54;}</style></defs><title>xmec meet type2</title><path class="greenlogo-1" d="M310.83,461.25h0a15.22,15.22,0,0,0-4.29-4.1l-1.5-.87q-4.5-2.61-13.11-.17l-.15-.09c2.18-6.87,1.55-12.56-2-17.07l-4.14-2.43q-7-4.08-13.75-.53a18.22,18.22,0,0,0-4.06,3.32,20.62,20.62,0,0,0-2.25,3.14q-6.57,11.31-4.47,44.25,19.51,1.24,33.73-.78c6.25-1.38,10.88-3.32,13.93-5.81a13.1,13.1,0,0,0,3.27-3.91Q316.09,469.2,310.83,461.25Z" transform="translate(-258.61 -326.65)"/><g id="BACKGROUND2"><path class="greenlogo-2" d="M284.7,377.34h0a15.1,15.1,0,0,0,4.12-4.31l.88-1.52q2.63-4.51.17-13.19l.09-.15c6.92,2.2,12.64,1.56,17.18-2l2.44-4.16q4.11-7.08.54-13.85a18.41,18.41,0,0,0-3.34-4.08,21.2,21.2,0,0,0-3.17-2.27q-11.37-6.6-44.53-4.49-1.26,19.64.78,33.95,2.1,9.44,5.85,14a13.14,13.14,0,0,0,3.94,3.29Q276.7,382.63,284.7,377.34Z" transform="translate(-258.61 -326.65)"/></g><g id="BACKGROUND2-2" data-name="BACKGROUND2"><path class="greenlogo-3" d="M369.53,352.58h0a15.2,15.2,0,0,0,4.28,4.1l1.51.87q4.5,2.61,13.11.17l.15.09c-2.18,6.87-1.55,12.56,2,17.07l4.14,2.43q7,4.08,13.76.53a18,18,0,0,0,4.05-3.32,21.39,21.39,0,0,0,2.26-3.14q6.56-11.31,4.47-44.25-19.51-1.25-33.74.78-9.37,2.07-13.92,5.81a12.89,12.89,0,0,0-3.27,3.91Q364.28,344.62,369.53,352.58Z" transform="translate(-258.61 -326.65)"/></g><g id="BACKGROUND2-3" data-name="BACKGROUND2"><path class="greenlogo-4" d="M394.58,437.11h0a15.36,15.36,0,0,0-4.12,4.31l-.88,1.52q-2.62,4.53-.17,13.19l-.09.15c-6.92-2.19-12.64-1.56-17.18,2l-2.44,4.17q-4.11,7.06-.54,13.84a18.41,18.41,0,0,0,3.34,4.08,20.51,20.51,0,0,0,3.17,2.27q11.37,6.61,44.52,4.5,1.27-19.64-.78-33.95-2.08-9.44-5.84-14a13.1,13.1,0,0,0-3.94-3.3Q402.59,431.83,394.58,437.11Z" transform="translate(-258.61 -326.65)"/></g><circle class="greenlogo-1" cx="60.63" cy="103.75" r="14.32"/><circle class="greenlogo-2" cx="60.39" cy="62.82" r="14.32"/><circle class="greenlogo-3" cx="102.11" cy="62.82" r="14.32"/><circle class="greenlogo-4" cx="102.39" cy="103.87" r="14.32"/><circle class="greenlogo-5" cx="81.39" cy="83.35" r="22.11"/><text class="greenlogo-6" transform="translate(191.04 110.26)">XMEC MEET<tspan class="greenlogo-7" x="375.95" y="0"> </tspan><tspan class="greenlogo-4" x="394.29" y="0">‘18</tspan></text></svg>