<svg id="Layer_1" data-name="Layer 1" xmlns="http://www.w3.org/2000/svg" viewBox="0 0 663.4 160.98"><defs><style>.redlogo-1{fill:#eb536a;}.redlogo-2,.redlogo-6{fill:#653b54;}.redlogo-3{fill:#ab4b65;}.redlogo-4{fill:#f4774e;}.redlogo-5{fill:#ffd389;opacity:0.45;}.redlogo-6{font-size:61.13px;font-family:Montserrat-SemiBold, Montserrat;font-weight:700;}</style></defs><title>xmec meet type1</title><g id="BACKGROUND"><path class="redlogo-1" d="M297.45,454.06h0a15.07,15.07,0,0,0-4.28-4.1l-1.51-.87q-4.48-2.61-13.11-.17l-.15-.09q3.28-10.31-2-17.07l-4.14-2.43q-7-4.08-13.76-.53a18.31,18.31,0,0,0-4,3.32,21.12,21.12,0,0,0-2.25,3.14q-6.57,11.31-4.47,44.25,19.5,1.25,33.73-.78,9.38-2.07,13.92-5.8a13.15,13.15,0,0,0,3.28-3.92Q302.7,462,297.45,454.06Z" transform="translate(-245.23 -319.47)"/></g><g id="BACKGROUND-2" data-name="BACKGROUND"><path class="redlogo-2" d="M271.32,370.15h0a15.15,15.15,0,0,0,4.13-4.31l.87-1.51q2.64-4.53.17-13.2l.09-.15c6.92,2.2,12.65,1.56,17.19-2l2.44-4.16q4.11-7.08.54-13.85a18.22,18.22,0,0,0-3.34-4.07,21.52,21.52,0,0,0-3.17-2.27q-11.37-6.61-44.53-4.5-1.26,19.64.78,33.95,2.08,9.44,5.85,14a13.24,13.24,0,0,0,3.93,3.3Q263.32,375.43,271.32,370.15Z" transform="translate(-245.23 -319.47)"/></g><g id="BACKGROUND-3" data-name="BACKGROUND"><path class="redlogo-3" d="M356.15,345.39h0a14.93,14.93,0,0,0,4.28,4.1l1.51.87q4.49,2.61,13.11.17l.14.09c-2.18,6.88-1.54,12.56,2,17.08l4.14,2.42q7,4.08,13.76.53a18.31,18.31,0,0,0,4.05-3.32,20.62,20.62,0,0,0,2.25-3.14q6.57-11.29,4.47-44.24-19.5-1.26-33.73.77-9.37,2.08-13.92,5.81a13.07,13.07,0,0,0-3.28,3.91Q350.91,337.43,356.15,345.39Z" transform="translate(-245.23 -319.47)"/></g><g id="BACKGROUND-4" data-name="BACKGROUND"><path class="redlogo-4" d="M381.2,429.92h0a15.36,15.36,0,0,0-4.12,4.31l-.88,1.52q-2.62,4.53-.17,13.2l-.09.15c-6.92-2.2-12.64-1.56-17.19,2l-2.44,4.16q-4.1,7.06-.53,13.85a18.22,18.22,0,0,0,3.34,4.07,20.91,20.91,0,0,0,3.16,2.27q11.39,6.61,44.53,4.5,1.26-19.64-.78-33.95-2.08-9.44-5.84-14a13.32,13.32,0,0,0-3.94-3.3Q389.21,424.64,381.2,429.92Z" transform="translate(-245.23 -319.47)"/></g><circle class="redlogo-1" cx="60.63" cy="103.75" r="14.32"/><circle class="redlogo-2" cx="60.39" cy="62.82" r="14.32"/><circle class="redlogo-3" cx="102.11" cy="62.82" r="14.32"/><circle class="redlogo-4" cx="102.39" cy="103.87" r="14.32"/><circle class="redlogo-5" cx="81.39" cy="83.35" r="22.11"/><text class="redlogo-6" transform="translate(179.5 107.72)">XMEC <tspan class="redlogo-3" x="201.61" y="0">MEET</tspan><tspan x="375.95" y="0"> </tspan><tspan class="redlogo-4" x="394.29" y="0">‘</tspan><tspan class="redlogo-1" x="408.47" y="0">18</tspan></text></svg>